<?xml version="1.0" standalone="no"?>
<!DOCTYPE svg PUBLIC "-//W3C//DTD SVG 20010904//EN"
 "http://www.w3.org/TR/2001/REC-SVG-20010904/DTD/svg10.dtd">
<svg version="1.0" xmlns="http://www.w3.org/2000/svg"
 width="270.000000pt" height="270.000000pt" viewBox="0 0 300.000000 300.000000"
 preserveAspectRatio="xMidYMid meet">

<g transform="translate(0.000000,300.000000) scale(0.400000,-0.400000)"
fill="#000000" stroke="none">
<path d="M330 690 c-11 -8 -9 -9 11 -5 59 14 108 -104 76 -182 -14 -36 -14
-40 10 -83 23 -43 23 -36 0 21 -5 14 -7 38 -3 52 5 23 10 26 34 22 25 -5 25
-5 5 4 -16 7 -23 19 -23 38 0 49 -20 102 -47 123 -29 22 -41 24 -63 10z"/>
<path d="M311 624 c0 -11 3 -14 6 -6 3 7 2 16 -1 19 -3 4 -6 -2 -5 -13z"/>
<path d="M201 558 c0 -12 3 -17 6 -10 3 9 12 7 30 -8 14 -11 39 -20 55 -20 27
0 29 -3 26 -32 -3 -29 -8 -35 -43 -46 -70 -23 -102 -70 -75 -112 6 -9 5 -20
-3 -30 -10 -13 -10 -13 4 -2 12 9 24 10 43 2 15 -5 33 -10 39 -9 7 0 -1 5 -18
11 -42 15 -65 37 -65 64 0 25 43 64 69 64 33 0 61 30 61 66 0 32 -2 34 -34 34
-22 0 -45 9 -65 26 l-31 26 1 -24z"/>
<path d="M534 532 c-19 -12 -36 -82 -29 -118 6 -34 58 -104 77 -104 6 0 -1 9
-15 20 -14 11 -31 37 -37 56 -13 40 -7 119 11 140 13 15 10 18 -7 6z"/>
<path d="M191 504 c0 -11 3 -14 6 -6 3 7 2 16 -1 19 -3 4 -6 -2 -5 -13z"/>
<path d="M166 452 l-19 -27 24 22 c12 12 21 24 18 27 -2 2 -13 -8 -23 -22z"/>
<path d="M104 400 c14 -17 28 -47 31 -68 10 -54 13 -61 14 -24 1 18 -8 50 -19
72 -14 28 -16 40 -7 43 6 3 -1 6 -16 6 l-29 1 26 -30z"/>
<path d="M285 403 c11 -3 27 -11 35 -19 11 -9 20 -10 30 -3 13 9 12 10 -2 6
-9 -3 -22 1 -28 9 -7 8 -22 13 -34 13 -20 -1 -20 -2 -1 -6z"/>
<path d="M380 380 c8 -5 11 -10 6 -10 -6 0 -1 -6 9 -14 19 -14 19 -15 1 -35
-11 -12 -22 -21 -26 -21 -13 0 -18 49 -6 54 6 2 3 5 -6 5 -14 1 -16 -5 -11
-33 5 -30 3 -35 -18 -39 -15 -3 -13 -4 6 -2 17 1 38 5 48 10 9 4 17 3 17 -3 0
-5 -9 -12 -20 -15 -12 -3 -20 -14 -20 -26 0 -13 -9 -26 -22 -32 -22 -9 -22 -9
3 -6 22 3 25 1 21 -25 -5 -32 -25 -36 -82 -15 -48 17 -60 26 -60 44 0 11 6 14
20 9 57 -17 60 -15 14 7 -29 14 -54 31 -57 38 -3 9 -6 10 -6 2 -1 -6 4 -15 9
-18 5 -3 10 -17 10 -29 0 -13 7 -30 16 -37 22 -18 83 -39 117 -39 22 0 27 4
27 25 0 14 5 25 11 25 5 0 8 4 4 9 -3 5 0 13 6 17 7 4 9 3 5 -4 -3 -5 0 -12 6
-15 10 -3 10 -7 -1 -21 -8 -9 -12 -19 -9 -22 3 -2 17 11 32 31 22 29 27 44 25
87 -2 29 1 62 5 73 4 12 1 10 -7 -5 -11 -17 -13 -40 -10 -76 5 -51 -10 -84
-23 -49 -4 10 -13 13 -25 10 -14 -5 -19 -1 -19 14 0 15 6 21 21 21 13 0 18 -4
13 -12 -5 -10 -4 -10 6 -1 8 8 9 16 2 29 -7 12 -7 25 0 37 11 21 -13 67 -35
67 -8 0 -7 -4 3 -10z"/>
<path d="M581 275 c-40 -46 -48 -78 -27 -110 16 -25 16 -25 -14 -25 -24 0 -42
-11 -78 -48 l-47 -48 -34 23 c-42 28 -94 30 -143 3 l-37 -19 -4 27 c-3 21 -4
18 -6 -11 l-1 -39 36 23 c62 38 149 24 191 -30 11 -14 12 -13 13 5 0 12 19 41
42 64 38 38 46 42 80 37 42 -6 45 -2 23 27 -27 36 -19 80 22 120 21 20 32 36
26 36 -6 0 -25 -16 -42 -35z"/>
<path d="M109 233 c-13 -16 -12 -17 4 -4 9 7 17 15 17 17 0 8 -8 3 -21 -13z"/>
<path d="M74 199 c-3 -5 4 -9 15 -9 33 0 51 -11 76 -49 14 -19 25 -30 25 -24
0 38 -100 108 -116 82z"/>
</g>
</svg>
