<?xml version="1.0" standalone="no"?>
<!DOCTYPE svg PUBLIC "-//W3C//DTD SVG 20010904//EN"
 "http://www.w3.org/TR/2001/REC-SVG-20010904/DTD/svg10.dtd">
<svg version="1.0" xmlns="http://www.w3.org/2000/svg"
 width="180.000000pt" height="208.000000pt" viewBox="0 0 180.000000 208.000000"
 preserveAspectRatio="xMidYMid meet">

<g transform="translate(0.000000,208.000000) scale(0.100000,-0.100000)"
fill="#000000" stroke="none">
<path d="M0 1040 l0 -1040 900 0 900 0 0 1040 0 1040 -900 0 -900 0 0 -1040z
m991 978 c53 -38 70 -59 103 -123 36 -73 56 -158 56 -247 0 -77 0 -78 32 -94
20 -10 56 -17 93 -17 54 0 57 -1 28 -10 -41 -12 -92 -2 -132 26 -32 22 -32 23
-36 117 -4 98 -18 157 -54 228 -66 129 -187 178 -268 107 -28 -23 -28 -24 -27
-147 0 -85 -2 -109 -7 -78 -4 25 -8 78 -8 119 -1 72 0 74 38 112 35 35 44 39
88 39 40 0 59 -6 94 -32z m-12 -26 c77 -57 128 -173 137 -312 5 -74 2 -97 -22
-175 -33 -110 -39 -153 -22 -181 7 -12 28 -46 46 -75 47 -78 67 -152 53 -199
-6 -20 -21 -46 -35 -59 l-24 -22 23 -42 c43 -79 40 -189 -6 -264 l-21 -33 -25
51 c-21 42 -24 55 -14 75 17 38 13 90 -9 134 l-20 39 20 33 c39 64 20 148 -42
186 -52 31 -88 35 -131 13 -37 -19 -38 -19 -47 0 -19 35 -82 69 -127 69 -29 0
-43 -4 -43 -13 0 -9 11 -12 34 -9 44 5 90 -20 125 -68 l29 -40 15 24 c23 35
60 40 114 16 25 -11 44 -23 40 -26 -3 -3 -38 -14 -77 -24 -39 -10 -74 -20 -76
-23 -2 -2 5 -24 16 -48 21 -46 26 -104 11 -128 -25 -39 -318 31 -387 91 -39
35 -58 87 -49 134 13 73 134 165 237 180 82 12 131 60 143 140 4 22 1 52 -5
69 -7 17 -16 84 -21 150 -5 66 -12 159 -15 207 -7 95 4 129 49 148 32 14 96 5
126 -18z m-183 -420 c-3 -3 -27 -7 -54 -10 -64 -6 -118 19 -202 92 l-65 57 -5
-54 c-6 -68 -20 -86 -20 -26 0 54 9 89 22 89 6 0 35 -23 65 -51 90 -81 163
-111 231 -93 20 6 22 13 24 83 l2 76 3 -79 c2 -43 2 -81 -1 -84z m-158 -14
c36 -17 55 -20 106 -15 l62 6 12 -47 c12 -47 7 -85 -17 -131 -14 -26 -53 -46
-104 -54 -100 -15 -214 -96 -243 -172 -20 -53 -14 -98 20 -148 l24 -35 -23
-22 c-56 -53 -56 -113 0 -166 32 -30 33 -34 23 -66 -21 -71 41 -140 152 -168
25 -6 67 -20 94 -32 41 -17 65 -20 140 -16 106 4 163 29 192 84 10 18 28 37
40 42 64 30 92 210 47 300 l-21 44 24 35 c13 19 26 50 30 68 8 45 -27 150 -73
217 -47 71 -49 92 -17 186 l27 81 48 -25 c61 -30 113 -31 172 0 26 13 47 22
47 22 0 -1 -9 -20 -19 -42 -26 -53 -51 -153 -51 -201 0 -45 24 -131 50 -184
46 -89 169 -189 236 -189 11 0 23 -2 25 -5 3 -2 -32 -43 -78 -89 -46 -47 -90
-101 -98 -120 -30 -72 -13 -155 50 -242 15 -20 14 -20 -44 -16 -52 4 -66 0
-120 -29 -69 -36 -203 -170 -236 -235 -10 -21 -20 -40 -21 -42 -1 -2 -21 17
-44 42 -25 27 -70 60 -109 79 -130 64 -280 46 -408 -50 l-58 -43 -6 77 c-15
195 -153 373 -291 373 l-32 0 61 63 c34 34 74 87 90 117 23 47 27 67 27 135
-1 99 -27 171 -93 258 l-46 62 53 2 c146 7 215 96 243 311 l12 91 51 -45 c28
-24 71 -54 94 -66z m812 30 c0 -17 -3 -19 -9 -9 -7 11 -18 8 -55 -14 -60 -35
-59 -26 1 14 55 37 63 38 63 9z m-993 -40 c-3 -7 -5 -2 -5 12 0 14 2 19 5 13
2 -7 2 -19 0 -25z m947 -74 c-23 -51 -33 -67 -29 -44 7 34 55 133 61 127 2 -2
-12 -39 -32 -83z m-957 24 c-3 -7 -5 -2 -5 12 0 14 2 19 5 13 2 -7 2 -19 0
-25z m-27 -85 c-11 -26 -28 -56 -38 -66 -28 -31 -88 -57 -129 -56 -38 2 -38 2
8 8 75 11 131 61 160 144 7 21 15 34 17 28 2 -5 -6 -31 -18 -58z m947 -45 c-3
-8 -6 -5 -6 6 -1 11 2 17 5 13 3 -3 4 -12 1 -19z m35 -214 c65 -130 153 -194
265 -194 35 0 63 -4 63 -9 0 -5 -19 -24 -42 -42 -129 -98 -208 -202 -208 -272
0 -42 49 -139 95 -191 54 -59 44 -72 -30 -36 -93 45 -178 17 -296 -100 -80
-79 -129 -158 -129 -210 0 -41 -35 -43 -43 -1 -8 39 -84 114 -148 147 -47 24
-66 27 -149 27 -114 0 -135 -8 -249 -92 -91 -68 -114 -70 -93 -9 l11 33 -6
-37 c-3 -21 -2 -38 2 -38 4 0 30 20 58 45 29 25 81 60 117 78 59 29 73 32 160
32 85 0 101 -3 153 -29 64 -33 143 -110 153 -150 9 -36 24 -33 24 4 0 17 10
50 21 73 28 54 182 208 236 236 50 25 118 27 170 6 20 -8 38 -13 41 -10 3 2
-14 30 -37 60 -79 105 -92 173 -47 250 29 48 143 165 189 193 15 9 27 19 27
22 0 3 -26 6 -57 6 -66 1 -106 18 -164 71 -83 76 -140 195 -138 290 2 44 2 43
9 -19 6 -45 20 -90 42 -134z m-1234 139 c-21 -2 -38 -6 -38 -8 0 -2 22 -26 49
-53 27 -27 63 -77 80 -110 41 -81 39 -93 -2 -17 -42 78 -81 128 -112 145 -14
7 -25 22 -25 32 0 15 7 18 43 16 l42 -1 -37 -4z m890 -251 c2 -27 -3 -53 -12
-67 -18 -28 -73 -70 -101 -79 -19 -5 -20 -2 -17 34 2 23 -3 58 -12 81 -9 23
-16 43 -14 44 8 6 125 33 138 32 10 -2 16 -16 18 -45z m-754 -53 c7 -44 -1
-129 -13 -129 -3 0 -6 40 -6 89 0 94 8 110 19 40z m450 -120 c89 -15 171 -7
225 21 42 21 56 19 63 -8 2 -9 -17 -20 -52 -31 l-55 -17 -3 -71 -3 -72 -73
-16 c-60 -13 -81 -14 -117 -5 -65 18 -241 104 -263 129 -31 35 -26 88 11 121
l31 28 83 -33 c46 -19 114 -39 153 -46z m-487 -72 c-15 -25 -60 -76 -102 -115
l-75 -70 58 1 c89 0 160 -42 222 -132 38 -57 81 -163 79 -198 0 -10 -6 2 -13
27 -53 191 -190 315 -321 291 -63 -12 -58 5 20 68 66 52 119 115 136 160 5 13
12 21 15 18 4 -3 -5 -26 -19 -50z m793 17 c0 -49 -14 -70 -60 -94 -22 -11 -42
-20 -45 -20 -3 0 -5 26 -5 58 l0 58 48 16 c64 22 62 22 62 -18z m-443 -118
c133 -59 160 -62 266 -36 51 12 105 29 120 37 23 11 31 12 43 2 19 -16 9 -22
-63 -39 l-52 -12 5 -41 c3 -23 1 -55 -5 -71 -11 -28 -12 -28 -84 -24 -39 2
-86 11 -104 20 -18 9 -49 19 -70 23 -102 17 -181 93 -155 149 6 14 14 26 16
26 3 0 40 -15 83 -34z m459 -61 c-15 -59 -27 -76 -71 -97 -24 -12 -47 -20 -49
-17 -2 2 -1 29 2 59 l7 54 45 12 c68 18 73 17 66 -11z"/>
</g>
</svg>
